<svg width="48" height="48" viewBox="0 0 48 48" fill="#FFFF09" xmlns="http://www.w3.org/2000/svg">
    <path fill-rule="evenodd" clip-rule="evenodd" d="M40.6458 31.306C42.6597 29.2878 43.6667 26.8525 43.6667 24C43.6667 21.1476 42.6597 18.7123 40.6458 16.694C38.6319 14.6758 36.2018 13.6667 33.3556 13.6667H15.3111C12.4648 13.6667 10.0347 14.6758 8.02083 16.694C6.00694 18.7123 5 21.1476 5 24C5 26.8525 6.00694 29.2878 8.02083 31.306C10.0347 33.3242 12.4648 34.3334 15.3111 34.3334C17.8889 34.3334 20.1579 33.4722 22.1181 31.75H26.5486C28.5088 33.4722 30.7778 34.3334 33.3556 34.3334C36.2018 34.3334 38.6319 33.3242 40.6458 31.306ZM21.6667 22.4V24.9334C21.6667 25.1181 21.6057 25.2698 21.4839 25.3886C21.362 25.5073 21.2063 25.5667 21.0167 25.5667H17.1167V29.3667C17.1167 29.5514 17.0557 29.7031 16.9339 29.8219C16.812 29.9406 16.6562 30 16.4667 30H13.8667C13.6771 30 13.5214 29.9406 13.3995 29.8219C13.2776 29.7031 13.2167 29.5514 13.2167 29.3667V25.5667H9.31667C9.12708 25.5667 8.97135 25.5073 8.84948 25.3886C8.7276 25.2698 8.66667 25.1181 8.66667 24.9334V22.4C8.66667 22.2153 8.7276 22.0636 8.84948 21.9448C8.97135 21.8261 9.12708 21.7667 9.31667 21.7667H13.2167V17.9667C13.2167 17.782 13.2776 17.6302 13.3995 17.5115C13.5214 17.3927 13.6771 17.3334 13.8667 17.3334H16.4667C16.6562 17.3334 16.812 17.3927 16.9339 17.5115C17.0557 17.6302 17.1167 17.782 17.1167 17.9667V21.7667H21.0167C21.2063 21.7667 21.362 21.8261 21.4839 21.9448C21.6057 22.0636 21.6667 22.2153 21.6667 22.4ZM32.6009 24.7813C33.0892 25.3021 33.3333 25.9306 33.3333 26.6667C33.3333 27.4028 33.0892 28.0313 32.6009 28.5521C32.1126 29.0729 31.5234 29.3334 30.8333 29.3334C30.1432 29.3334 29.554 29.0729 29.0658 28.5521C28.5775 28.0313 28.3333 27.4028 28.3333 26.6667C28.3333 25.9306 28.5775 25.3021 29.0658 24.7813C29.554 24.2604 30.1432 24 30.8333 24C31.5234 24 32.1126 24.2604 32.6009 24.7813ZM38.6667 21.3334C38.6667 20.5972 38.4225 19.9688 37.9342 19.4479C37.446 18.9271 36.8568 18.6667 36.1667 18.6667C35.4766 18.6667 34.8874 18.9271 34.3991 19.4479C33.9108 19.9688 33.6667 20.5972 33.6667 21.3334C33.6667 22.0695 33.9108 22.6979 34.3991 23.2188C34.8874 23.7396 35.4766 24 36.1667 24C36.8568 24 37.446 23.7396 37.9342 23.2188C38.4225 22.6979 38.6667 22.0695 38.6667 21.3334Z"/>
</svg>