<svg width="224" height="72" viewBox="0 0 224 72" fill="none" xmlns="http://www.w3.org/2000/svg">
    <rect width="224" height="72" fill="#1D1D1B"/>
    <path fill-rule="evenodd" clip-rule="evenodd" d="M195.576 63.5752H223.579V50.6422H197.424V8.01849H182.644V50.6429C182.644 57.785 188.434 63.5752 195.576 63.5752Z" fill="white"/>
    <path fill-rule="evenodd" clip-rule="evenodd" d="M177.358 46.733C177.354 37.4382 169.817 29.9047 160.522 29.9047H147.147V20.951H174.685V8.01874H149.049C139.836 8.01874 132.367 15.4878 132.367 24.7008C132.367 33.9139 139.836 41.3829 149.049 41.3829H162.578V50.6424H135.039V63.5755H160.522C169.823 63.5755 177.362 56.0333 177.358 46.733Z" fill="white"/>
    <path fill-rule="evenodd" clip-rule="evenodd" d="M83.3142 50.6429C83.3142 57.7849 89.1044 63.5751 96.2465 63.5751H127.774V50.6421H98.0943V41.3834H125.826V29.9052H98.0943V20.9515H127.774V8.01843H96.237C89.0997 8.01843 83.3142 13.8047 83.3142 20.9413V50.6429Z" fill="white"/>
    <path fill-rule="evenodd" clip-rule="evenodd" d="M34.7058 1.99982C15.9724 1.99982 0.785156 17.187 0.785156 35.9205C0.785156 54.654 15.9724 69.8404 34.7058 69.8404C53.4393 69.8404 68.6265 54.654 68.6265 35.9205C68.6265 17.187 53.4393 1.99982 34.7058 1.99982Z" fill="white"/>
    <path fill-rule="evenodd" clip-rule="evenodd" d="M35.9915 8.11444L10.1812 49.0986C11.0371 50.6878 12.0423 52.1851 13.1796 53.5691L52.3552 14.3935C47.8611 10.7034 42.1904 8.3966 35.9915 8.11444ZM56.3203 18.3815L17.1675 57.5336C18.5625 58.6677 20.0685 59.6674 21.6687 60.5163L62.5161 34.7924C62.2685 28.5825 59.9884 22.8969 56.3203 18.3815ZM61.9124 41.8184L28.2731 63.0025C46.0296 66.9536 59.4028 54.3954 61.9124 41.8184Z" fill="black"/>
</svg>