<svg width="48" height="48" viewBox="0 0 48 48" fill="#FFFF09" xmlns="http://www.w3.org/2000/svg">
    <path fill-rule="evenodd" clip-rule="evenodd" d="M40 18.6041V16.1319C40 15.6169 39.8205 15.1791 39.4615 14.8186C39.1026 14.458 38.6667 14.2778 38.1538 14.2778H32.6154V12.4236C32.6154 11.5738 32.3141 10.8463 31.7115 10.2411C31.109 9.6359 30.3846 9.33331 29.5385 9.33331H18.4615C17.6154 9.33331 16.891 9.6359 16.2885 10.2411C15.6859 10.8463 15.3846 11.5738 15.3846 12.4236V14.2778H9.84615C9.33333 14.2778 8.89744 14.458 8.53846 14.8186C8.17949 15.1791 8 15.6169 8 16.1319V18.6041C8 19.5184 8.26603 20.439 8.79808 21.3661C9.33013 22.2932 10.0481 23.1301 10.9519 23.8769C11.8558 24.6237 12.9647 25.2515 14.2788 25.7601C15.5929 26.2687 16.9744 26.5552 18.4231 26.6196C18.9615 27.3149 19.5705 27.9265 20.25 28.4544C20.7372 28.8922 21.0737 29.359 21.2596 29.8547C21.4455 30.3504 21.5385 30.9266 21.5385 31.5833C21.5385 32.2786 21.3429 32.8645 20.9519 33.3409C20.5609 33.8173 19.9359 34.0555 19.0769 34.0555C18.1154 34.0555 17.2596 34.3485 16.5096 34.9343C15.7596 35.5202 15.3846 36.2574 15.3846 37.1458V38.3819C15.3846 38.5622 15.4423 38.7103 15.5577 38.8261C15.6731 38.942 15.8205 39 16 39H32C32.1795 39 32.3269 38.942 32.4423 38.8261C32.5577 38.7103 32.6154 38.5622 32.6154 38.3819V37.1458C32.6154 36.2574 32.2404 35.5202 31.4904 34.9343C30.7404 34.3485 29.8846 34.0555 28.9231 34.0555C28.0641 34.0555 27.4391 33.8173 27.0481 33.3409C26.6571 32.8645 26.4615 32.2786 26.4615 31.5833C26.4615 30.9266 26.5545 30.3504 26.7404 29.8547C26.9263 29.359 27.2628 28.8922 27.75 28.4544C28.4295 27.9265 29.0385 27.3149 29.5769 26.6196C31.0256 26.5552 32.4071 26.2687 33.7212 25.7601C35.0353 25.2515 36.1442 24.6237 37.0481 23.8769C37.9519 23.1301 38.6699 22.2932 39.2019 21.3661C39.734 20.439 40 19.5184 40 18.6041ZM16.8078 23.9156C15.859 21.8296 15.3847 19.4411 15.3847 16.75H10.4616V18.6041C10.4616 19.6085 11.0674 20.6515 12.2789 21.7331C13.4904 22.8146 15.0001 23.5422 16.8078 23.9156ZM37.5385 18.6041V16.75H32.6154C32.6154 19.4411 32.141 21.8296 31.1923 23.9156C33 23.5422 34.5096 22.8146 35.7212 21.7331C36.9327 20.6515 37.5385 19.6085 37.5385 18.6041Z"/>
</svg>