<svg width="48" height="48" viewBox="0 0 48 48" fill="#FFFF09" xmlns="http://www.w3.org/2000/svg">
    <path fill-rule="evenodd" clip-rule="evenodd" d="M41.3284 11.4765C40.6584 10.8375 39.8853 10.518 39.0092 10.518H26.4858L31.8972 5.15023L30.7376 4L24.1667 10.518L17.5957 4L16.4362 5.15023L21.8475 10.518H9.32411C8.44799 10.518 7.67494 10.8375 7.00496 11.4765C6.33499 12.1155 6 12.8951 6 13.8153V33.446C6 34.3151 6.33499 35.0691 7.00496 35.7081C7.67494 36.3472 8.44799 36.6667 9.32411 36.6667H39.0092C39.8853 36.6667 40.6584 36.3472 41.3284 35.7081C41.9983 35.0691 42.3333 34.3151 42.3333 33.446V13.8153C42.3333 12.8951 41.9983 12.1155 41.3284 11.4765ZM39.0092 33.446V13.8153H9.32407V33.446H39.0092ZM19.2191 17.036L30.7376 23.6306L19.2191 30.1486V17.036Z"/>
</svg>